<svg version="1.1" id="Camada_1" xmlns="http://www.w3.org/2000/svg" x="0" y="0" viewBox="0 0 1024 1024" style="enable-background:new 0 0 1024 1024" xml:space="preserve"><style>.st1{fill:#9feaf9}</style><circle cx="512" cy="512" r="512" style="fill-rule:evenodd;clip-rule:evenodd;fill:#2b2e3a"/><path class="st1" d="M402 286.8c-104-18.9-186.3.9-219 57.7-24.5 42.4-17.5 98.5 17 158.6 2.8 5.2 9.3 7.1 14.5 4.3 5.2-2.8 7.1-9.3 4.3-14.5-.1-.1-.2-.3-.2-.4-31-54.1-37-102.6-17-137.3 27.2-47.2 100.6-64.9 196.7-47.3 5.8 1 11.3-3 12.3-8.8.8-5.8-2.9-11.2-8.6-12.3zM254 576c42.1 46.2 96.7 89.6 159 125.6C563.9 788.7 724.5 812 803.7 758c4.9-3.2 6.3-9.8 3.1-14.8-3.2-4.9-9.8-6.3-14.8-3.1-.1.1-.2.1-.3.2-70.9 48.3-223.4 26.2-368-57.3-60.5-34.9-113.4-76.9-153.9-121.4-3.9-4.4-10.7-4.7-15.1-.8-4.3 4-4.7 10.8-.7 15.2 0-.1 0 0 0 0z"/><path class="st1" d="M778.5 563c68.1-80.5 91.9-161.4 59.2-218-24.1-41.7-75-63.7-142.6-64.6-5.9 0-10.7 4.8-10.7 10.7 0 5.8 4.6 10.5 10.4 10.6 60.8.8 104.7 19.8 124.4 53.9 27.2 47.1 6 119.2-57 193.6-3.9 4.5-3.4 11.2 1.1 15 4.5 3.9 11.2 3.4 15-1.1.1 0 .1 0 .2-.1zM603.4 290.3c-61.6 13.2-127.1 39-190.1 75.3-155.7 90-257.3 222.6-243.2 318.8.8 5.8 6.2 9.9 12 9.2 5.8-.8 9.9-6.2 9.2-12v-.3C178.7 595.9 275 470.2 424 384.1c61.1-35.3 124.5-60.2 183.9-73 5.8-1.1 9.5-6.7 8.4-12.5s-6.7-9.5-12.5-8.4c-.1.1-.3.1-.4.1z"/><path class="st1" d="M351.1 751c35.6 99.4 93.9 160.7 159.4 160.7 47.8 0 92-32.6 126.5-89.9 3.1-5 1.6-11.6-3.4-14.7-5-3.1-11.6-1.6-14.7 3.4-.1.1-.1.2-.2.3-31 51.5-69 79.6-108.2 79.6-54.4 0-106.4-54.6-139.3-146.5-1.9-5.6-7.9-8.6-13.5-6.7-5.6 1.9-8.6 7.9-6.7 13.5 0 0 0 .2.1.3zm325.3-19.4c18.4-58.9 28.3-126.9 28.3-197.7 0-176.7-61.9-329.1-149.9-368.2-5.4-2.3-11.7.3-14 5.7-2.2 5.3.1 11.3 5.3 13.8 78.6 34.9 137.3 179.5 137.3 348.7 0 68.7-9.6 134.5-27.4 191.3-1.8 5.6 1.2 11.6 6.8 13.5s11.6-1.2 13.5-6.8c0-.1 0-.2.1-.3zm200.9-10.5c0-28.2-22.9-51.1-51.1-51.1s-51.1 22.9-51.1 51.1 22.9 51.1 51.1 51.1 51.1-22.9 51.1-51.1zm-21.4 0c0 16.4-13.3 29.7-29.7 29.7s-29.7-13.3-29.7-29.7 13.3-29.7 29.7-29.7 29.7 13.3 29.7 29.7zM194 772.2c28.2 0 51.1-22.9 51.1-51.1S222.2 670 194 670c-28.2 0-51.1 22.9-51.1 51.1s22.9 51.1 51.1 51.1zm0-21.4c-16.4 0-29.7-13.3-29.7-29.7s13.3-29.7 29.7-29.7 29.7 13.3 29.7 29.7-13.3 29.7-29.7 29.7z"/><path class="st1" d="M510.5 217.8c28.2 0 51.1-22.9 51.1-51.1s-22.9-51.1-51.1-51.1-51.1 22.9-51.1 51.1 22.9 51.1 51.1 51.1zm0-21.4c-16.4 0-29.7-13.3-29.7-29.7s13.3-29.7 29.7-29.7 29.7 13.3 29.7 29.7-13.3 29.7-29.7 29.7zm7.8 373.6c-19.9 4.3-39.6-8.4-43.9-28.3-4.3-19.9 8.4-39.6 28.3-43.9 19.9-4.3 39.6 8.4 43.9 28.3 4.3 19.9-8.4 39.6-28.3 43.9z"/></svg>